<svg width="30" height="36" viewBox="0 0 30 36" fill="none" xmlns="http://www.w3.org/2000/svg">
<path d="M0 36L2.11881 26.7555C0.811354 24.0495 0.124341 20.982 0.125597 17.8365C0.129364 8.0025 6.82994 0 15.0628 0C19.058 0.0015 22.8083 1.86 25.6292 5.232C28.4489 8.604 30.0013 13.086 30 17.853C29.9962 27.6885 23.2957 35.691 15.0628 35.691C12.5634 35.6895 10.1005 34.941 7.91886 33.519L0 36ZM8.28561 30.2895C10.3906 31.782 12.4001 32.676 15.0578 32.6775C21.9003 32.6775 27.4743 26.0265 27.478 17.85C27.4805 9.657 21.9329 3.015 15.0678 3.012C8.2203 3.012 2.65009 9.663 2.64758 17.838C2.64632 21.1755 3.46521 23.6745 4.84049 26.289L3.58578 31.761L8.28561 30.2895ZM22.5873 22.0935C22.4943 21.9075 22.2457 21.7965 21.8714 21.573C21.4984 21.3495 19.6634 20.271 19.3205 20.1225C18.9789 19.974 18.7302 19.899 18.4803 20.346C18.2316 20.7915 17.5157 21.7965 17.2984 22.0935C17.0811 22.3905 16.8626 22.428 16.4896 22.2045C16.1166 21.981 14.9133 21.5115 13.4878 19.992C12.3788 18.81 11.629 17.3505 11.4117 16.9035C11.1944 16.458 11.3891 16.2165 11.575 15.9945C11.7433 15.795 11.948 15.474 12.1351 15.213C12.3248 14.955 12.3863 14.769 12.5119 14.4705C12.6363 14.1735 12.5747 13.9125 12.4805 13.689C12.3863 13.467 11.6403 11.2725 11.3301 10.38C11.0261 9.5115 10.7184 9.6285 10.4898 9.615L9.77393 9.6C9.52524 9.6 9.12082 9.711 8.7792 10.158C8.43758 10.605 7.473 11.682 7.473 13.8765C7.473 16.071 8.8106 18.1905 8.99648 18.4875C9.18362 18.7845 11.6277 23.2875 15.3718 25.218C16.2622 25.677 16.958 25.9515 17.4994 26.157C18.3936 26.496 19.2075 26.448 19.8505 26.334C20.5677 26.2065 22.0585 25.2555 22.37 24.2145C22.6815 23.172 22.6815 22.2795 22.5873 22.0935Z" fill="#808D7D"/>
</svg>
